# xmcd
#
# Track frame offsets: 
#        150
#        13383
#        26422
#        42745
#        54433
#        65780
#        82716
#        99088
#        115200
#        127697
#        141343
#        154566
#        170584
#        186637
#        198044
#        211712
#
# Disc length: 3056 seconds
#
# Revision: 0
# Processed by: cddbd v1.5.2PL0 Copyright (c) Steve Scherf et al.
# Submitted via: ExactAudioCopy v1.3
#
DISCID=d40bee10
DTITLE=Carpenters -  Beautiful Moments
DYEAR=1980
DGENRE=Pop
TTITLE0=Sweet, Sweet Smile
TTITLE1=There's A Kind Of Hush (All Over The World)
TTITLE2=Jambalaya (On The Bayou)
TTITLE3=Top Of The World
TTITLE4=For All We Know
TTITLE5=Solitaire
TTITLE6=Close To You (They Long To Be)
TTITLE7=Only Yesterday
TTITLE8=Please Mr. Postman
TTITLE9=Reason To Believe
TTITLE10=I'll Never Fall In Love Again
TTITLE11=Rainy Days And Mondays
TTITLE12=Desperado
TTITLE13=Breaking Up Is Hard To Do
TTITLE14=Breaking Up Is Hard To Do
TTITLE15=Yesterday Once More
EXTD=
EXTT0=
EXTT1=
EXTT2=
EXTT3=
EXTT4=
EXTT5=
EXTT6=
EXTT7=
EXTT8=
EXTT9=
EXTT10=
EXTT11=
EXTT12=
EXTT13=
EXTT14=
EXTT15=
PLAYORDER=
